<svg xmlns="http://www.w3.org/2000/svg" viewBox="0 0 807.76 319.68"><defs><style>.cls-1,.cls-3{fill:#15caff;}.cls-1{fill-rule:evenodd;}.cls-2{isolation:isolate;}</style></defs><title>资源 1</title><g id="图层_2" data-name="图层 2"><g id="图层_1-2" data-name="图层 1"><g id="图层_1-2-2" data-name="图层 1-2"><path class="cls-1" d="M314.81,132.43c-11.08-28.26-36.33-52.19-76.29-51.49.11-41.21-23.69-65.83-53.58-77.15-14.86-5.61-38.13-4.7-52.21.82C104.34,15.75,80.14,41,80.92,81c-39.6-.09-65,22.57-76.16,50.82-6.59,16.74-6.23,40.3.41,56.61,11.14,27.45,36.6,51,75.69,50.38C80.77,279,104,304,132.86,315.29c16.54,6.45,39.68,5.47,55.43-.79,27.53-11,51-36.64,50.29-75.69,40.86.08,65.44-23.52,76.89-52.93C321.4,170.54,320.52,147,314.81,132.43Zm-107,109.27c-6.51,14.85-19.17,25.14-36.2,29.49-3.57.91-7.47.87-11.51,1.31-8,.89-16.87-2.58-22.13-4.86-16.36-7.2-26.29-20.38-30.41-39.9a47.4,47.4,0,0,1-.26-15.94c2.06-11.14,6.36-19.86,10.08-29.36L135.5,136l11.05-28.32c1.6-3.88,2.59-9.37,5.66-11.84,2.09-1.67,4-1.7,6.83-2.88,9.27,0,10.67,6.68,13.3,13.3q7.57,19.33,15.15,38.69,7.45,19,14.88,38.05c3.48,8.73,7.43,16.94,9.63,26.86,2.56,11.65-.72,23.88-4.22,31.87Zm62-65.71C264.05,192.7,251.1,206.9,233,211L186.71,93.46q-4.59-11.79-9.21-23.57c-1.44-3.56-2.39-7.49-4.48-10.4a17.24,17.24,0,0,0-7.5-5.67,16.57,16.57,0,0,0-8.55-.64c-9.71,2.13-11.66,8.42-15,16.84L136.3,84.51,86.79,211.06c-6.19-.57-12.05-4.52-16.32-7.39-16.15-10.75-30.41-36-20.15-62.39,6.83-17.66,20.59-29.78,41.08-33.86,4.88-1,10.53-.4,15.67-.25-.11-4.81-.78-10.45.13-15.15,4.23-21.85,17.5-36.6,37.42-42.77C175.06,39.78,200,59.58,208.49,79.4c2.51,5.9,6.31,18.6,3.81,27.35v.4c4.48-.11,9.74-.82,14.22,0,20.68,3.76,34.54,14.93,41.87,32a58.93,58.93,0,0,1,3.15,10.41A54,54,0,0,1,269.79,176Z"/><g class="cls-2"><path class="cls-3" d="M568.33,82.17H549l-1.38,2.76v6.9l-1.38,2.76h-27.6V86.31l-1.38-4.14-4.14-1.38h-89.7l-2.76,1.38-1.38,4.14v6.9l-1.38,1.38H391.69l-1.38-2.76V86.31l-1.38-4.14-2.76-1.38H362.71V57.33L364.09,56h22.08l2.76-1.38,1.38-4.14v-6.9h27.6l1.38,1.38v6.9l1.38,2.76L423.43,56h88.32l4.14-1.38,1.38-2.76V43.53l1.38-1.38h27.6l1.38,1.38v11L550.39,56h17.94V82.17Zm0,164.22h-138l-4.14-2.76-5.52-4.14-8.28-4.14H411l-12.42,8.28-2.76,2.76H362.71V221.55h17.94l1.38-1.38,107.64-66.24,5.52-5.52,1.38-1.38v-2.76l-2.76-1.38H362.71V116.67h84.18l2.76-1.38,1.38-2.76V100.11l1.38-1.38h29v12.42l1.38,4.14,2.76,1.38h77.28V136l-1.38,2.76-118.68,80-1.38,1.38,5.52,2.76H568.33v23.46Z"/><path class="cls-3" d="M807.76,246.39H792.58l-5.52-4.14-2.76-2.76V162.21l-1.38-1.38h-1.38l-1.38,1.38v89.7H755.32V160.83h-2.76v1.38l-1.38,55.2L749.8,234,747,239.49l-2.76,4.14-4.14,2.76L736,247.77H720.82l-4.14-1.38L712.54,245l-2.76-4.14L707,238.11v-5.52l-1.38-33.12L704.26,165H701.5v86.94h-29V165h-1.38l-1.38,1.38-1.38,30.36L667,229.83,665.62,234l-1.38,5.52-2.76,2.76-4.14,4.14-5.52,1.38H638l-1.38-1.38v-5.52h-2.76L632.5,245l-2.76,4.14L627,251.91l-5.52,1.38-6.9,1.38H602.14l-1.38-1.38V228.45l1.38-1.38h5.52l2.76-1.38V54.57l2.76-1.38h73.14l2.76-1.38,2.76-1.38v-6.9H722.2v5.52L725,51.81l4.14,1.38H805l1.38,1.38V79.41L805,80.79H640.78l-1.38,1.38v138h4.14v-1.38L646.3,176l1.38-42.78,1.38-2.76h22.08l1.38-1.38V125l-1.38-1.38H646.3V96h24.84l1.38-1.38V86.31h27.6V96h23.46v27.6h-20.7L701.5,125v5.52h22.08v42.78L725,216l1.38,1.38h2.76l1.38-2.76v-34.5l2.76-34.5v-13.8l1.38-1.38h19.32l1.38-1.38V125l-1.38-1.38H730.48V96H756.7V86.31l1.38-1.38h20.7l1.38,1.38V96h26.22l1.38,1.38v24.84l-1.38,1.38H781.54v6.9h20.7l1.38,1.38v88.32l1.38,2.76v2.76l2.76,1.38Z"/></g></g></g></g></svg>