<svg xmlns="http://www.w3.org/2000/svg" viewBox="0 0 222 222.09"><defs><style>.cls-1{fill:#15caff;fill-rule:evenodd;}</style></defs><title>资源 1</title><g id="图层_2" data-name="图层 2"><g id="图层_1-2" data-name="图层 1"><g id="图层_1-2-2" data-name="图层 1-2"><g id="图层_1-2-2-2" data-name="图层 1-2-2"><g id="图层_1-2-2-2-2" data-name="图层 1-2-2-2"><path class="cls-1" d="M218.72,92c-7.7-19.63-25.24-36.26-53-35.77.07-28.63-16.46-45.74-37.23-53.6C118.17-1.27,102-.64,92.22,3.2c-19.73,7.74-36.54,25.25-36,53.05C28.71,56.19,11.05,71.93,3.31,91.56c-4.58,11.63-4.33,28,.28,39.33,7.74,19.07,25.43,35.44,52.59,35-.06,27.89,16.09,45.32,36.14,53.14,11.49,4.48,27.57,3.8,38.51-.55,19.13-7.61,35.43-25.46,34.94-52.59,28.39.06,45.47-16.34,53.42-36.77C223.3,118.48,222.69,102.13,218.72,92Zm-74.36,75.92c-4.52,10.32-13.32,17.47-25.15,20.49-2.48.63-5.19.6-8,.91-5.54.62-11.72-1.79-15.37-3.38-11.37-5-18.27-14.16-21.13-27.72a32.66,32.66,0,0,1-.18-11.07c1.43-7.74,4.42-13.8,7-20.4L94.14,94.48l7.68-19.67c1.11-2.7,1.8-6.51,3.93-8.23,1.45-1.16,2.78-1.18,4.75-2,6.44,0,7.41,4.64,9.24,9.24l10.52,26.88,10.34,26.44c2.42,6.06,5.16,11.77,6.69,18.66,1.78,8.09-.5,16.59-2.93,22.14Zm43.08-45.65c-4,11.61-13,21.47-25.61,24.33L129.72,64.93q-3.19-8.19-6.4-16.38c-1-2.47-1.66-5.2-3.11-7.22A12.23,12.23,0,0,0,115,37.39a11.76,11.76,0,0,0-5.94-.45c-6.75,1.48-8.1,5.85-10.43,11.7L94.7,58.71,60.3,146.63c-4.3-.39-8.37-3.14-11.34-5.13-11.22-7.47-21.13-25-14-43.35C39.71,85.88,49.27,77.46,63.5,74.63c3.39-.67,7.32-.28,10.89-.18-.08-3.34-.54-7.26.09-10.52,2.94-15.18,12.16-25.43,26-29.72,21.15-6.58,38.44,7.18,44.37,20.95,1.76,4.1,4.39,12.9,2.65,19v.28c3.11-.08,6.77-.57,9.88,0,14.37,2.61,24,10.37,29.09,22.22a41.55,41.55,0,0,1,2.19,7.23,37.53,37.53,0,0,1-1.22,18.4Z"/></g></g></g></g></g></svg>